<svg xmlns="http://www.w3.org/2000/svg" xmlns:xlink="http://www.w3.org/1999/xlink" width="940" zoomAndPan="magnify" viewBox="0 0 705 374.999991" height="500" preserveAspectRatio="xMidYMid meet" version="1.0"><defs><g/><clipPath id="5e661a4c02"><path d="M 67.179688 152.882812 L 130.929688 152.882812 L 130.929688 221.882812 L 67.179688 221.882812 Z M 67.179688 152.882812 " clip-rule="nonzero"/></clipPath></defs><g fill="#000000" fill-opacity="1"><g transform="translate(144.885613, 208.142319)"><g><path d="M 24.40625 1.230469 C 36.878906 1.230469 47.117188 -2.464844 47.117188 -16.246094 C 47.117188 -34.953125 20.941406 -32.410156 20.941406 -38.03125 C 20.941406 -39.496094 22.09375 -40.339844 25.714844 -40.417969 C 31.71875 -40.496094 38.339844 -38.492188 43.574219 -35.183594 L 43.574219 -50.65625 C 38.261719 -53.507812 30.796875 -55.125 23.710938 -55.125 C 12.085938 -55.125 2.617188 -49.734375 2.617188 -38.417969 C 2.617188 -19.554688 28.792969 -21.789062 28.792969 -16.246094 C 28.792969 -14.472656 27.40625 -13.625 22.632812 -13.625 C 16.9375 -13.625 9.777344 -15.628906 3.078125 -20.015625 L 3.078125 -3.847656 C 9.007812 -0.539062 16.320312 1.230469 24.40625 1.230469 Z M 24.40625 1.230469 "/></g></g></g><g fill="#000000" fill-opacity="1"><g transform="translate(192.152986, 208.142319)"><g><path d="M 4.003906 0 L 21.789062 0 L 21.789062 -14.011719 L 27.5625 -14.011719 C 41.34375 -14.089844 51.734375 -18.863281 51.734375 -33.953125 C 51.734375 -49.117188 41.34375 -53.890625 27.5625 -53.890625 L 4.003906 -53.890625 Z M 21.789062 -28.714844 L 21.789062 -39.1875 L 27.484375 -39.1875 C 31.488281 -39.1875 34.105469 -37.722656 34.105469 -33.953125 C 34.105469 -30.179688 31.488281 -28.714844 27.484375 -28.714844 Z M 21.789062 -28.714844 "/></g></g></g><g fill="#000000" fill-opacity="1"><g transform="translate(243.577439, 208.142319)"><g><path d="M 39.03125 -53.890625 L 19.863281 -53.890625 L -0.230469 0 L 17.859375 0 L 20.171875 -7.160156 L 38.726562 -7.160156 L 41.113281 0 L 59.203125 0 Z M 24.175781 -20.015625 L 27.945312 -31.410156 C 28.484375 -33.414062 29.023438 -35.566406 29.484375 -38.339844 C 29.871094 -35.566406 30.410156 -33.414062 31.027344 -31.410156 L 34.722656 -20.015625 Z M 24.175781 -20.015625 "/></g></g></g><g fill="#000000" fill-opacity="1"><g transform="translate(301.006574, 208.142319)"><g><path d="M 4.003906 0 L 21.789062 0 L 21.789062 -15.859375 L 26.023438 -15.859375 L 37.03125 0 L 56.585938 0 L 42.804688 -18.785156 C 48.195312 -21.480469 52.042969 -26.40625 52.042969 -34.875 C 52.042969 -49.578125 40.574219 -53.890625 29.101562 -53.890625 L 4.003906 -53.890625 Z M 21.789062 -29.253906 L 21.789062 -39.417969 L 28.640625 -39.417969 C 32.105469 -39.417969 34.105469 -37.339844 34.105469 -34.335938 C 34.105469 -31.332031 32.105469 -29.253906 28.640625 -29.253906 Z M 21.789062 -29.253906 "/></g></g></g><g fill="#000000" fill-opacity="1"><g transform="translate(355.510347, 208.142319)"><g><path d="M 4.003906 0 L 21.789062 0 L 21.789062 -19.246094 L 25.945312 -19.246094 L 37.339844 0 L 56.972656 0 L 40.265625 -27.175781 L 56.585938 -53.890625 L 37.03125 -53.890625 L 26.328125 -34.796875 L 21.789062 -34.796875 L 21.789062 -53.890625 L 4.003906 -53.890625 Z M 4.003906 0 "/></g></g></g><g fill="#000000" fill-opacity="1"><g transform="translate(410.01412, 208.142319)"><g><path d="M 31.949219 1.230469 C 37.648438 1.230469 42.882812 0.152344 47.730469 -2 L 47.730469 -18.246094 C 44.960938 -15.78125 39.800781 -14.398438 34.257812 -14.398438 C 27.175781 -14.398438 20.246094 -17.9375 20.246094 -26.40625 C 20.246094 -36.03125 27.253906 -39.648438 34.566406 -39.648438 C 39.417969 -39.648438 44.34375 -38.03125 47.347656 -36.03125 L 47.347656 -51.890625 C 42.574219 -54.046875 36.953125 -55.125 31.488281 -55.125 C 16.707031 -55.125 1.925781 -46.886719 1.925781 -26.40625 C 1.925781 -6.773438 16.628906 1.230469 31.949219 1.230469 Z M 31.949219 1.230469 "/></g></g></g><g fill="#000000" fill-opacity="1"><g transform="translate(458.590187, 208.142319)"><g><path d="M 4.003906 0 L 21.789062 0 L 21.789062 -15.859375 L 26.023438 -15.859375 L 37.03125 0 L 56.585938 0 L 42.804688 -18.785156 C 48.195312 -21.480469 52.042969 -26.40625 52.042969 -34.875 C 52.042969 -49.578125 40.574219 -53.890625 29.101562 -53.890625 L 4.003906 -53.890625 Z M 21.789062 -29.253906 L 21.789062 -39.417969 L 28.640625 -39.417969 C 32.105469 -39.417969 34.105469 -37.339844 34.105469 -34.335938 C 34.105469 -31.332031 32.105469 -29.253906 28.640625 -29.253906 Z M 21.789062 -29.253906 "/></g></g></g><g fill="#000000" fill-opacity="1"><g transform="translate(513.093973, 208.142319)"><g><path d="M 39.03125 -53.890625 L 19.863281 -53.890625 L -0.230469 0 L 17.859375 0 L 20.171875 -7.160156 L 38.726562 -7.160156 L 41.113281 0 L 59.203125 0 Z M 24.175781 -20.015625 L 27.945312 -31.410156 C 28.484375 -33.414062 29.023438 -35.566406 29.484375 -38.339844 C 29.871094 -35.566406 30.410156 -33.414062 31.027344 -31.410156 L 34.722656 -20.015625 Z M 24.175781 -20.015625 "/></g></g></g><g fill="#000000" fill-opacity="1"><g transform="translate(570.523114, 208.142319)"><g><path d="M 4.003906 0 L 21.789062 0 L 21.789062 -16.550781 L 41.804688 -16.550781 L 41.804688 -31.71875 L 21.789062 -31.71875 L 21.789062 -38.339844 L 44.035156 -38.339844 L 44.035156 -53.890625 L 4.003906 -53.890625 Z M 4.003906 0 "/></g></g></g><g fill="#000000" fill-opacity="1"><g transform="translate(615.250061, 208.142319)"><g><path d="M 15.398438 0 L 33.183594 0 L 33.183594 -38.339844 L 47.578125 -38.339844 L 47.578125 -53.890625 L 0.925781 -53.890625 L 0.925781 -38.339844 L 15.398438 -38.339844 Z M 15.398438 0 "/></g></g></g><g clip-path="url(#5e661a4c02)"><path fill="#000000" d="M 130.582031 176.117188 C 130.011719 174.507812 128.492188 173.121094 126.789062 173.121094 L 110.894531 173.121094 L 124.445312 160.214844 C 125.617188 159.074219 125.980469 157.140625 125.363281 155.625 C 124.746094 154.109375 123.273438 152.921875 121.636719 152.921875 L 94.160156 152.921875 C 92.902344 152.921875 91.71875 153.859375 90.957031 154.859375 L 68 185.21875 C 67.074219 186.433594 66.917969 187.972656 67.597656 189.34375 C 68.277344 190.714844 69.671875 191.484375 71.203125 191.484375 L 86.707031 191.484375 C 86.757812 191.484375 86.8125 191.847656 86.871094 191.933594 L 73.355469 216.007812 C 72.410156 217.691406 72.789062 219.855469 74.261719 221.101562 C 75.011719 221.734375 75.9375 222.078125 76.863281 222.078125 C 77.757812 222.078125 78.652344 221.792969 79.386719 221.195312 L 129.316406 180.738281 C 130.644531 179.667969 131.148438 177.722656 130.582031 176.117188 Z M 130.582031 176.117188 " fill-opacity="1" fill-rule="nonzero"/></g></svg>